<svg width="730" height="260" xmlns="http://www.w3.org/2000/svg">
    <g>
        <title>background</title>
        <rect x="-1" y="-1" width="732" height="262" id="canvas_background" fill="none"/>
    </g>
    <g>
        <title>Layer 1</title>
        <rect rx="14" opacity="0.9" filter="url(#svg_2_blur)" id="svg_2" height="252" width="724.00002" y="4" x="3" stroke-width="1.5" fill="#00a854" stroke="#000"/>
        <g id="svg_34" stroke="null">
            <g id="svg_32" transform="matrix(0.9325397951748117,0,0,0.9727181766371839,-1864.122554644166,-905.4248899167185) " stroke="null">
                <title>background</title>
                <rect fill="none" id="svg_30" height="224" width="224" y="952.46541" x="2020.42035" stroke="null"/>
            </g>
            <g id="svg_33" transform="matrix(0.9325397951748117,0,0,0.9727181766371839,-1864.122554644166,-905.4248899167185) " stroke="null">
                <title>Layer 1</title>
                <path id="svg_29" d="m2216.75335,1082.97141c-0.446,0 -0.893,0 -1.488,-0.148c-6.399,-0.744 -11.013,-6.548 -10.269,-12.947l6.994,-57.891c0.447,-3.721 -1.785,-7.293 -5.208,-8.483l-47.176,-16.816c-6.103,-2.232 -9.228,-8.78 -7.144,-14.882c2.232,-6.102 8.78,-9.227 14.882,-7.144l47.176,16.816c13.989,4.911 22.472,18.603 20.687,33.336l-6.995,57.891c-0.595,5.804 -5.655,10.268 -11.459,10.268z" fill="#FFFFFF" stroke="null"/>
                <path id="svg_28" d="m2126.27135,1175.68741c-5.209,0 -10.417,-1.34 -15.329,-4.019l-61.016,-33.931c-8.781,-4.911 -14.733,-13.691 -15.924,-23.663l-12.352,-100.602c-1.786,-14.733 6.995,-28.723 20.983,-33.634l75.452,-25.746c6.102,-2.083 12.799,1.19 14.882,7.292c2.084,6.103 -1.19,12.799 -7.292,14.883l-75.452,25.745c-3.572,1.191 -5.804,4.763 -5.357,8.632l12.352,100.603c0.298,2.53 1.786,4.762 4.018,6.102l61.016,33.931c2.381,1.34 5.358,1.34 7.739,0l66.076,-36.163c2.232,-1.19 3.87,-3.571 4.167,-6.102c0.744,-6.399 6.549,-11.013 12.948,-10.269c6.398,0.744 11.012,6.548 10.269,12.947c-1.191,9.971 -7.293,18.9 -16.073,23.812l-66.076,36.163c-4.614,2.679 -9.823,4.019 -15.031,4.019z" fill="#FFFFFF" stroke="null"/>
                <defs>
                    <style type="text/css"/>
                    <filter id="svg_2_blur">
                        <feGaussianBlur stdDeviation="0"/>
                    </filter>
                </defs>
                <g id="svg_26" stroke="null">
                    <path id="svg_27" fill="#fffcfc" d="m2159.27222,1055.63932q0,-1.85625 -1.32771,-3.21643t-3.14891,-1.35618q-12.02773,0 -22.2421,3.53648t-18.1493,9.57329t-16.4691,15.68212q-1.32771,1.5002 -1.32771,3.21643q0,1.85625 1.32771,3.21643t3.1489,1.35619q1.68021,0 3.14891,-1.35619q1.88778,-1.71623 5.17377,-5.07268t4.6842,-4.71664q9.57988,-8.85719 18.77986,-12.5737t21.92486,-3.7165q1.81728,0 3.14891,-1.35618t1.32771,-3.21643l0,-0.00001zm35.80904,-14.14191q0,6.78492 -1.39821,13.78587q-3.21549,16.00216 -12.90504,27.35969t-25.00327,19.14659q-14.96515,7.71704 -30.63136,7.71704q-10.35144,0 -20.00183,-3.35645q-1.04964,-0.35605 -6.1529,-3.00041t-6.71297,-2.64435q-1.12014,0 -2.76117,2.2843t-3.14891,5.00068t-3.67373,5.00068t-4.19462,2.28431q-2.09928,0 -3.56798,-0.78411t-2.16977,-1.71623t-1.88778,-3.00041q-0.141,-0.28404 -0.41907,-0.7841t-0.38382,-0.7161t-0.2115,-0.68009t-0.10575,-0.96413q0,-2.50034 2.16977,-5.25271t4.7547,-4.68063t4.75469,-4.00054t2.16977,-3.42847q0,-0.28404 -0.97914,-2.71636t-1.12013,-3.14443q-0.63056,-3.64449 -0.63056,-7.429q0,-8.21711 3.04316,-15.71813t8.32267,-13.18178t11.9259,-9.92934t14.268,-6.82092q3.84606,-1.28417 10.13996,-1.82025t12.55255,-0.64408t12.48597,-0.42806t11.43633,-1.71623t7.93885,-4.03655l2.06402,-2.10828t2.06403,-2.00027t1.88777,-1.4282t2.5536,-1.14415t3.04316,-0.32004q2.72592,0 4.93094,3.28444t3.32123,8.00108t1.6802,8.8572t0.56007,6.85692l-0.00783,0.01601l0,-0.00001z" stroke="null"/>
                </g>
            </g>
        </g>
        <text fill="#ffffff" stroke-width="0" x="223.76267" y="202.43339" id="svg_1" font-size="141" font-family="'Consolas', serif" text-anchor="start" xml:space="preserve" font-style="italic" font-weight="bold" transform="matrix(0.9063603764231543,0,0,1.492773254864834,15.381025311949777,-102.06304977648219) " stroke="#000">Fastjee</text>
        <line fill="none" stroke="null" stroke-width="null" stroke-opacity="null" fill-opacity="null" x1="60.31" y1="74.8076" x2="84.99615" y2="108.28034" id="svg_9" stroke-linejoin="null" stroke-linecap="null"/>
        <defs>
            <style type="text/css"/>
        </defs>
    </g>
</svg>