<svg width="260" height="260" xmlns="http://www.w3.org/2000/svg">
 <g>
  <title>background</title>
  <rect fill="none" id="canvas_background" height="262" width="262" y="-1" x="-1"/>
 </g>
 <g>
  <title>Layer 1</title>
  <rect stroke="#000" stroke-width="1.5" fill="#00a854"  stroke-opacity="null" x="4" y="5.49999" width="252" height="249.00001" id="svg_3" opacity="0.9" rx="14"/>
  <path id="svg_2" d="m127.36164,240.222c-5.209,0 -10.417,-1.34 -15.329,-4.019l-61.016,-33.931c-8.781,-4.911 -14.733,-13.691 -15.924,-23.663l-12.352,-100.602c-1.786,-14.733 6.995,-28.723 20.983,-33.634l75.452,-25.746c6.102,-2.083 12.799,1.19 14.882,7.292c2.084,6.103 -1.19,12.799 -7.292,14.883l-75.452,25.745c-3.572,1.191 -5.804,4.763 -5.357,8.632l12.352,100.603c0.298,2.53 1.786,4.762 4.018,6.102l61.016,33.931c2.381,1.34 5.358,1.34 7.739,0l66.076,-36.163c2.232,-1.19 3.87,-3.571 4.167,-6.102c0.744,-6.399 6.549,-11.013 12.948,-10.269c6.398,0.744 11.012,6.548 10.269,12.947c-1.191,9.971 -7.293,18.9 -16.073,23.812l-66.076,36.163c-4.614,2.679 -9.823,4.019 -15.031,4.019z" fill="#ffffff"/>
  <defs>
   <style type="text/css"/>
  </defs>
  <g stroke="null" id="svg_9">
   <path stroke="null" id="svg_8" fill="#ffffff" d="m156.61783,113.59945q0,-1.85625 -1.32771,-3.21644t-3.14891,-1.35618q-12.02773,0 -22.2421,3.53648t-18.1493,9.57329t-16.46911,15.68212q-1.32771,1.5002 -1.32771,3.21643q0,1.85625 1.32771,3.21644t3.14891,1.35618q1.6802,0 3.14891,-1.35618q1.88778,-1.71624 5.17377,-5.07269t4.68419,-4.71664q9.57989,-8.85719 18.77987,-12.57369t21.92486,-3.71651q1.81728,0 3.14891,-1.35618t1.32771,-3.21643zm35.80904,-14.14191q0,6.78491 -1.39821,13.78586q-3.21549,16.00216 -12.90504,27.35969t-25.00327,19.14659q-14.96515,7.71704 -30.63136,7.71704q-10.35144,0 -20.00183,-3.35645q-1.04964,-0.35605 -6.1529,-3.00041t-6.71297,-2.64435q-1.12014,0 -2.76117,2.28431t-3.14891,5.00067t-3.67373,5.00068t-4.19463,2.28431q-2.09927,0 -3.56797,-0.78411t-2.16977,-1.71623t-1.88778,-3.00041q-0.141,-0.28403 -0.41907,-0.7841t-0.38383,-0.7161t-0.21149,-0.68009t-0.10575,-0.96413q0,-2.50034 2.16977,-5.25271t4.7547,-4.68063t4.75469,-4.00054t2.16977,-3.42847q0,-0.28403 -0.97914,-2.71636t-1.12013,-3.14443q-0.63057,-3.64449 -0.63057,-7.429q0,-8.21711 3.04317,-15.71812t8.32267,-13.18179t11.9259,-9.92934t14.268,-6.82092q3.84606,-1.28417 10.13996,-1.82024t12.55255,-0.64409t12.48596,-0.42806t11.43634,-1.71623t7.93885,-4.03655l2.06402,-2.10828t2.06402,-2.00027t1.88778,-1.42819t2.55359,-1.14416t3.04317,-0.32004q2.72592,0 4.93093,3.28444t3.32124,8.00108t1.6802,8.8572t0.56007,6.85693l-0.00783,0.016z"/>
  </g>
  <path id="svg_1" d="m219.24789,144.93153c-0.446,0 -0.893,0 -1.488,-0.148c-6.399,-0.744 -11.013,-6.548 -10.269,-12.947l6.994,-57.891c0.447,-3.721 -1.785,-7.293 -5.208,-8.483l-47.176,-16.816c-6.103,-2.232 -9.228,-8.78 -7.144,-14.882c2.232,-6.102 8.78,-9.227 14.882,-7.144l47.176,16.816c13.989,4.911 22.472,18.603 20.687,33.336l-6.995,57.891c-0.595,5.804 -5.655,10.268 -11.459,10.268z" fill="#ffffff"/>
 </g>
</svg>